<?xml version="1.0" encoding="UTF-8" standalone="no"?>
<svg
   xmlns:dc="http://purl.org/dc/elements/1.1/"
   xmlns:cc="http://creativecommons.org/ns#"
   xmlns:rdf="http://www.w3.org/1999/02/22-rdf-syntax-ns#"
   xmlns:svg="http://www.w3.org/2000/svg"
   xmlns="http://www.w3.org/2000/svg"
   viewBox="0 0 130.3197 29.999901"
   id="svg158"
   height="29.999901"
   width="130.3197"
   version="1.1">
  <metadata
     id="metadata164">
    <rdf:RDF>
      <cc:Work
         rdf:about="">
        <dc:format>image/svg+xml</dc:format>
        <dc:type
           rdf:resource="http://purl.org/dc/dcmitype/StillImage" />
      </cc:Work>
    </rdf:RDF>
  </metadata>
  <defs
     id="defs162" />
  <g
     id="Layer1000">
    <g
       id="Layer1001">
      <g
         id="Layer1002">
        <g
           id="Layer1003">
          <path
             id="path2"
             style="fill:#1b1918;fill-rule:evenodd"
             d="m 115.7987,18.315 h 9.7253 l 2.9402,-3.6116 c 0,0 0.6479,-1.0051 -0.2262,-1.3543 h -14.9272 c 0,0 -1.0153,0.0851 -1.5832,0.6771 l -4.7496,5.8688 c 0,0 -0.6723,1.1542 0.4524,1.5801 h 13.7963 c 0,0 2.1598,-0.3364 3.1664,-2.0315 h -11.0823 l 3.3925,-4.063 h 5.4281 c 0,0 0.008,0.5494 -0.6785,1.1286 h -4.071 z" />
        </g>
        <g
           id="Layer1004">
          <path
             id="path5"
             style="fill:#1b1918;fill-rule:evenodd"
             d="m 78.2544,14.9291 -5.428,6.546 h 9.9514 l 3.8449,-4.5145 h -4.5234 c 0,0 0.6081,-1.1404 0.9047,-1.1286 h 6.1066 l -4.7496,5.6431 h 5.6543 l 6.7851,-8.126 c 0,0 -11.121,0.0112 -14.7822,0 -1.9203,0.0186 -2.785,0.4572 -3.7638,1.58 z" />
        </g>
        <g
           id="Layer1005">
          <path
             id="path8"
             style="fill:#1b1918;fill-rule:evenodd"
             d="m 63.3272,21.4751 4.7496,-5.1916 c 0,0 0.4806,-0.624 0,-0.6772 h -1.357 l -4.9758,5.8688 h -5.6542 l 5.6542,-6.546 -8.3682,-9.9319 h 3.8449 l 6.5589,7.6747 0.4523,-0.4515 -4.7495,-5.6431 h 4.7495 l 4.7495,5.6431 c 0,0 0.1036,0.3152 0,0.4515 l -0.6784,0.9029 h 7.4636 c 0,0 1.5088,0.4508 0.6785,1.8058 l -4.9758,6.0945 z" />
        </g>
        <g
           id="Layer1006">
          <path
             id="path11"
             style="fill:#1b1918;fill-rule:evenodd"
             d="m 39.3532,18.5407 h 11.7609 c 0,0 -0.2243,0.7156 -0.9047,0.9029 H 38.9009 L 37.77,20.5722 c 0,0 -0.7544,0.9029 0.4524,0.9029 0,0 8.5318,0 12.495,0 1.0503,0 2.5346,-0.0546 3.0977,-0.311 0.4953,-0.2255 1.0993,-0.527 1.5962,-1.0434 l 3.1664,-3.6115 H 47.043 c 0,0 0.0874,-0.733 0.9047,-1.1286 h 11.3085 l 1.1309,-1.1287 c 0,0 0.713,-0.6771 -0.4524,-0.6771 -15.6422,0 -15.5555,-0.5267 -17.4151,1.58 z" />
        </g>
        <g
           id="Layer1007">
          <path
             id="path14"
             style="fill:#1b1918;fill-rule:evenodd"
             d="m 91.5985,21.4751 h 6.1066 l 4.7495,-5.8688 h 1.8094 l -0.9047,1.3543 h 4.7496 l 2.9402,-3.6115 H 99.5144 c 0,0 -0.9643,0.0796 -1.8093,1.1286 z" />
        </g>
        <g
           id="Layer1008">
          <path
             id="path17"
             style="fill:#1b1918;fill-rule:evenodd"
             d="m 90.0153,21.4751 6.7851,-8.126 z" />
        </g>
        <g
           id="Layer1009">
          <path
             id="path20"
             style="fill:#1b1918;fill-rule:evenodd"
             d="m 49.6361,25.4858 0.4264,-0.1214 v -0.0621 c 0,-0.2428 -0.0504,-0.4127 -0.1511,-0.5096 -0.1007,-0.0969 -0.2838,-0.1454 -0.5492,-0.1454 h -1.5898 c -0.2711,0 -0.4547,0.0494 -0.5507,0.1482 -0.096,0.0988 -0.144,0.2847 -0.144,0.5576 v 0.2597 c 0,0.2729 0.048,0.4588 0.144,0.5576 0.096,0.0988 0.2796,0.1482 0.5507,0.1482 h 1.875 v 0.8978 H 47.425 v -0.4799 l -0.4631,0.1072 v 0.0819 c 0,0.2729 0.0489,0.4588 0.1469,0.5576 0.0978,0.0988 0.2823,0.1482 0.5535,0.1482 h 1.7422 c 0.2692,0 0.4519,-0.0489 0.5479,-0.1468 0.096,-0.0978 0.144,-0.2841 0.144,-0.559 v -0.3359 c 0,-0.2729 -0.049,-0.4583 -0.1468,-0.5562 -0.098,-0.0979 -0.2796,-0.1468 -0.5451,-0.1468 h -1.8806 v -0.8329 h 2.1122 z" />
        </g>
        <g
           id="Layer1010">
          <path
             id="path23"
             style="fill:#1b1918;fill-rule:evenodd"
             d="m 54.3859,27.6314 v -0.4093 h -2.3974 v -0.9487 h 1.4514 v -0.3952 h -1.4514 v -0.83 h 2.3748 v -0.4009 h -2.8747 v 2.9841 z" />
        </g>
        <g
           id="Layer1011">
          <path
             id="path26"
             style="fill:#1b1918;fill-rule:evenodd"
             d="m 56.0436,25.5281 c 0.0075,0.0113 0.0122,0.0179 0.0141,0.0198 l 1.186,1.6149 h 0.1271 l 1.1408,-1.6601 c 0.0226,-0.032 0.0485,-0.0743 0.0777,-0.127 0.0292,-0.0527 0.0626,-0.1176 0.1002,-0.1948 -0.0019,0.0527 -0.0061,0.1322 -0.0127,0.2385 -0.0066,0.1064 -0.0099,0.1727 -0.0099,0.1991 v 2.0129 h 0.4575 v -2.9841 h -0.4575 l -1.3526,1.9424 -1.4514,-1.9424 h -0.4067 v 2.9841 h 0.4236 v -2.0129 c 0,-0.1054 -0.0019,-0.1901 -0.0056,-0.2541 -0.0038,-0.064 -0.0095,-0.1252 -0.017,-0.1835 0.0377,0.1129 0.0998,0.2287 0.1864,0.3472 z" />
        </g>
        <g
           id="Layer1012">
          <path
             id="path29"
             style="fill:#1b1918;fill-rule:evenodd"
             d="m 63.4591,27.6314 v -0.4093 h -2.3974 v -0.9487 h 1.4514 v -0.3952 h -1.4514 v -0.83 h 2.3748 v -0.4009 h -2.8746 v 2.9841 z" />
        </g>
        <g
           id="Layer1013">
          <path
             id="path32"
             style="fill:#1b1918;fill-rule:evenodd"
             d="m 65.8313,24.9889 0.8047,1.5273 h -1.6067 z m -1.3922,2.6425 v 0 l 0.3812,-0.734 h 2.0191 l 0.3812,0.734 h 0.5478 l -1.6576,-2.9841 h -0.5337 l -1.6294,2.9841 z" />
        </g>
        <g
           id="Layer1014">
          <path
             id="path35"
             style="fill:#1b1918;fill-rule:evenodd"
             d="m 69.0759,27.6314 v -1.7588 c 0,-0.1393 -0.0028,-0.2602 -0.0085,-0.3628 -0.0056,-0.1026 -0.0141,-0.199 -0.0254,-0.2894 0.0546,0.0922 0.1384,0.1892 0.2513,0.2908 0.0226,0.0207 0.0396,0.0358 0.0509,0.0451 l 2.2929,2.0751 h 0.2796 v -2.9841 h -0.4575 v 1.6375 c 0,0.1844 0.0038,0.3289 0.0113,0.4333 0.0075,0.1045 0.0188,0.2047 0.0339,0.3007 -0.0603,-0.0772 -0.1191,-0.1478 -0.1765,-0.2118 -0.0574,-0.0639 -0.1115,-0.1185 -0.1624,-0.1637 l -2.2336,-1.996 h -0.3135 v 2.9841 z" />
        </g>
        <g
           id="Layer1015">
          <path
             id="path38"
             style="fill:#1b1918;fill-rule:evenodd"
             d="m 75.9408,25.3037 c 0.2033,0.1665 0.305,0.439 0.305,0.8173 0,0.3915 -0.0998,0.6719 -0.2994,0.8413 -0.1996,0.1694 -0.5412,0.2541 -1.025,0.2541 h -1.0731 v -2.1626 h 1.0731 c 0.4762,0 0.8161,0.0833 1.0194,0.2499 z m -2.5923,-0.6564 v 0 2.9841 h 1.6435 c 0.2767,0 0.5063,-0.0188 0.689,-0.0564 0.1826,-0.0377 0.335,-0.096 0.4574,-0.1751 0.1958,-0.128 0.3478,-0.3035 0.4561,-0.5265 0.1082,-0.223 0.1624,-0.4738 0.1624,-0.7524 0,-0.2616 -0.0551,-0.5025 -0.1652,-0.7228 -0.1102,-0.2202 -0.2612,-0.3933 -0.4533,-0.5194 -0.1261,-0.0809 -0.28,-0.1398 -0.4616,-0.1765 -0.1818,-0.0367 -0.41,-0.055 -0.6848,-0.055 z" />
        </g>
        <g
           id="Layer1016">
          <path
             id="path41"
             style="fill:#1b1918;fill-rule:evenodd"
             d="m 78.3637,25.0538 h 2.4709 v 2.1626 h -2.4709 z m -0.497,1.8718 v 0 c 0,0.271 0.0485,0.4565 0.1455,0.5562 0.0969,0.0998 0.2819,0.1496 0.5549,0.1496 h 2.0642 c 0.2692,0 0.4522,-0.0489 0.5492,-0.1468 0.097,-0.0978 0.1454,-0.2841 0.1454,-0.559 v -1.5725 c 0,-0.2729 -0.0484,-0.4588 -0.1454,-0.5576 -0.097,-0.0988 -0.28,-0.1482 -0.5492,-0.1482 h -2.0642 c -0.273,0 -0.458,0.0499 -0.5549,0.1496 -0.097,0.0998 -0.1455,0.2852 -0.1455,0.5562 z" />
        </g>
        <g
           id="Layer1017">
          <path
             id="path44"
             style="fill:#1b1918;fill-rule:evenodd"
             d="m 86.073,24.9889 0.8048,1.5273 h -1.6067 z m -1.3921,2.6425 v 0 l 0.3812,-0.734 h 2.019 l 0.3813,0.734 h 0.5478 l -1.6576,-2.9841 h -0.5337 l -1.6293,2.9841 z" />
        </g>
        <g
           id="Layer1018">
          <path
             id="path47"
             style="fill:#1b1918;fill-rule:evenodd"
             d="m 89.4476,25.5281 c 0.0075,0.0113 0.0123,0.0179 0.0141,0.0198 l 1.1861,1.6149 h 0.127 l 1.1409,-1.6601 c 0.0226,-0.032 0.0484,-0.0743 0.0776,-0.127 0.0292,-0.0527 0.0626,-0.1176 0.1003,-0.1948 -0.0019,0.0527 -0.0062,0.1322 -0.0127,0.2385 -0.0066,0.1064 -0.0099,0.1727 -0.0099,0.1991 v 2.0129 h 0.4574 V 24.6473 H 92.071 l -1.3526,1.9424 -1.4515,-1.9424 h -0.4066 v 2.9841 h 0.4235 v -2.0129 c 0,-0.1054 -0.0018,-0.1901 -0.0056,-0.2541 -0.0038,-0.064 -0.0094,-0.1252 -0.017,-0.1835 0.0377,0.1129 0.0998,0.2287 0.1864,0.3472 z" />
        </g>
        <g
           id="Layer1019">
          <path
             id="path50"
             style="fill:#1b1918;fill-rule:evenodd"
             d="m 94.4657,27.6314 v -2.9841 h -0.4998 v 2.9841 z" />
        </g>
        <g
           id="Layer1020">
          <path
             id="path53"
             style="fill:#1b1918;fill-rule:evenodd"
             d="m 98.5124,27.6314 v -0.415 h -2.2506 l 2.2506,-2.3997 V 24.6473 H 95.697 v 0.4065 h 2.0191 l -2.2111,2.3743 v 0.2033 z" />
        </g>
        <g
           id="Layer1021">
          <path
             id="path56"
             style="fill:#1b1918;fill-rule:evenodd"
             d="m 101.0229,24.9889 0.8048,1.5273 h -1.6068 z m -1.3922,2.6425 v 0 l 0.3812,-0.734 h 2.0191 l 0.3812,0.734 h 0.5478 l -1.6576,-2.9841 h -0.5337 l -1.6293,2.9841 z" />
        </g>
        <g
           id="Layer1022">
          <path
             id="path59"
             style="fill:#1b1918;fill-rule:evenodd"
             d="m 106.4024,25.3037 c 0.2033,0.1665 0.305,0.439 0.305,0.8173 0,0.3915 -0.0998,0.6719 -0.2993,0.8413 -0.1996,0.1694 -0.5413,0.2541 -1.0251,0.2541 h -1.0731 v -2.1626 h 1.0731 c 0.4762,0 0.8161,0.0833 1.0194,0.2499 z m -2.5923,-0.6564 v 0 2.9841 h 1.6435 c 0.2767,0 0.5064,-0.0188 0.689,-0.0564 0.1826,-0.0377 0.3351,-0.096 0.4575,-0.1751 0.1957,-0.128 0.3477,-0.3035 0.456,-0.5265 0.1083,-0.223 0.1624,-0.4738 0.1624,-0.7524 0,-0.2616 -0.0551,-0.5025 -0.1652,-0.7228 -0.1101,-0.2202 -0.2612,-0.3933 -0.4532,-0.5194 -0.1262,-0.0809 -0.2801,-0.1398 -0.4617,-0.1765 -0.1817,-0.0367 -0.41,-0.055 -0.6848,-0.055 z" />
        </g>
        <g
           id="Layer1023">
          <path
             id="path62"
             style="fill:#1b1918;fill-rule:evenodd"
             d="m 111.2651,27.6314 v -0.4093 h -2.3974 v -0.9487 h 1.4515 v -0.3952 h -1.4515 v -0.83 h 2.3749 v -0.4009 h -2.8747 v 2.9841 z" />
        </g>
        <g
           id="Layer1024">
          <path
             id="path65"
             style="fill:#1b1918;fill-rule:evenodd"
             d="m 114.8826,25.4858 0.4264,-0.1214 v -0.0621 c 0,-0.2428 -0.0504,-0.4127 -0.151,-0.5096 -0.1008,-0.0969 -0.2839,-0.1454 -0.5493,-0.1454 h -1.5898 c -0.2711,0 -0.4547,0.0494 -0.5507,0.1482 -0.096,0.0988 -0.144,0.2847 -0.144,0.5576 v 0.2597 c 0,0.2729 0.048,0.4588 0.144,0.5576 0.096,0.0988 0.2796,0.1482 0.5507,0.1482 h 1.875 v 0.8978 h -2.2224 v -0.4799 l -0.4631,0.1072 v 0.0819 c 0,0.2729 0.049,0.4588 0.1469,0.5576 0.0979,0.0988 0.2824,0.1482 0.5534,0.1482 h 1.7424 c 0.2692,0 0.4518,-0.0489 0.5478,-0.1468 0.096,-0.0978 0.144,-0.2841 0.144,-0.559 v -0.3359 c 0,-0.2729 -0.049,-0.4583 -0.1468,-0.5562 -0.0979,-0.0979 -0.2796,-0.1468 -0.545,-0.1468 h -1.8807 v -0.8329 h 2.1122 z" />
        </g>
      </g>
      <g
         id="Layer1025">
        <g
           id="Layer1026">
          <path
             id="path69"
             style="fill:#1b1918;fill-rule:evenodd"
             d="m 1.9133,2.6068 8.3683,9.9319 -5.6543,6.7717 h 15.8319 c 0,0 0.994,-0.2806 1.8094,-0.9029 1.0716,-0.8179 2.0355,-2.0315 2.0355,-2.0315 l 4.2973,-5.1917 h -9.9515 l -2.0355,2.483 h 4.071 c 0,0 -0.4873,0.9029 -0.9047,0.9029 -0.4173,0 -5.428,0 -5.428,0 L 17.9714,10.2814 12.7695,4.1869 H 8.0199 L 12.7695,9.83 12.3171,10.2814 5.7582,2.6068 Z" />
        </g>
        <g
           id="Layer1027">
          <path
             id="path72"
             style="fill:#1b1918;fill-rule:evenodd"
             d="m 36.7435,8.4756 h 5.8804 c 0,0 -0.4856,1.4194 -2.2617,2.0316 h -5.2019 z" />
        </g>
        <g
           id="Layer1028">
          <path
             id="path75"
             style="fill:#1b1918;fill-rule:evenodd"
             d="m 29.9584,11.1843 -2.714,3.1601 h 4.7495 l -4.7495,5.4174 h -9.9515 c 0,0 -2.2638,0.2116 -3.8449,1.3544 -1.6944,1.2245 -2.7141,3.3859 -2.7141,3.3859 H 29.9584 L 41.2669,11.1843 Z" />
        </g>
      </g>
    </g>
    <g
       id="Layer1029">
      <g
         id="Layer1030">
        <path
           id="path80"
           style="fill:#ffffff;fill-rule:evenodd"
           d="m 115.5098,18.0767 h 9.7253 l 2.9402,-3.6116 c 0,0 0.6479,-1.0051 -0.2262,-1.3543 h -14.9272 c 0,0 -1.0153,0.0851 -1.5832,0.6771 l -4.7495,5.8688 c 0,0 -0.6724,1.1542 0.4523,1.5801 h 13.7964 c 0,0 2.1597,-0.3364 3.1664,-2.0315 h -11.0824 l 3.3926,-4.063 h 5.4281 c 0,0 0.007,0.5494 -0.6786,1.1286 h -4.071 z" />
      </g>
      <g
         id="Layer1031">
        <path
           id="path83"
           style="fill:#ffffff;fill-rule:evenodd"
           d="m 77.9656,14.6908 -5.4281,6.546 h 9.9515 l 3.8448,-4.5145 h -4.5234 c 0,0 0.6081,-1.1403 0.9047,-1.1286 h 6.1066 l -4.7496,5.6431 h 5.6543 l 6.7851,-8.126 c 0,0 -11.121,0.0112 -14.7822,0 -1.9202,0.0186 -2.785,0.4572 -3.7637,1.58 z" />
      </g>
      <g
         id="Layer1032">
        <path
           id="path86"
           style="fill:#ffffff;fill-rule:evenodd"
           d="m 63.0384,21.2368 4.7495,-5.1916 c 0,0 0.4806,-0.6239 0,-0.6772 h -1.357 l -4.9757,5.8688 h -5.6543 l 5.6543,-6.546 -8.3683,-9.9318 h 3.8449 l 6.5589,7.6746 0.4524,-0.4514 -4.7496,-5.6432 h 4.7496 l 4.7495,5.6432 c 0,0 0.1035,0.3151 0,0.4514 l -0.6785,0.9029 h 7.4636 c 0,0 1.5088,0.4509 0.6785,1.8058 l -4.9758,6.0945 z" />
      </g>
      <g
         id="Layer1033">
        <path
           id="path89"
           style="fill:#ffffff;fill-rule:evenodd"
           d="m 39.0643,18.3024 h 11.7609 c 0,0 -0.2243,0.7157 -0.9047,0.9029 H 38.612 l -1.1308,1.1286 c 0,0 -0.7545,0.9029 0.4523,0.9029 0,0 8.5318,0 12.495,0 1.0503,0 2.5347,-0.0545 3.0978,-0.311 0.4952,-0.2254 1.0992,-0.527 1.5961,-1.0433 l 3.1664,-3.6116 H 46.7541 c 0,0 0.0874,-0.7329 0.9047,-1.1286 h 11.3085 l 1.1309,-1.1287 c 0,0 0.7131,-0.6771 -0.4524,-0.6771 -15.6421,0 -15.5554,-0.5267 -17.4151,1.58 z" />
      </g>
      <g
         id="Layer1034">
        <path
           id="path92"
           style="fill:#ffffff;fill-rule:evenodd"
           d="m 91.3096,21.2368 h 6.1066 l 4.7496,-5.8688 h 1.8093 l -0.9047,1.3543 h 4.7496 l 2.9402,-3.6115 H 99.2256 c 0,0 -0.9643,0.0796 -1.8094,1.1286 z" />
      </g>
      <g
         id="Layer1035">
        <path
           id="path95"
           style="fill:#ffffff;fill-rule:evenodd"
           d="m 89.7264,21.2368 6.7851,-8.126 z" />
      </g>
      <g
         id="Layer1036">
        <path
           id="path98"
           style="fill:#ffffff;fill-rule:evenodd"
           d="m 49.3472,25.2475 0.4264,-0.1214 V 25.064 c 0,-0.2428 -0.0504,-0.4127 -0.1511,-0.5096 -0.1007,-0.0969 -0.2838,-0.1454 -0.5492,-0.1454 h -1.5898 c -0.2711,0 -0.4547,0.0494 -0.5507,0.1482 -0.096,0.0988 -0.144,0.2847 -0.144,0.5576 v 0.2597 c 0,0.2729 0.048,0.4588 0.144,0.5576 0.096,0.0988 0.2796,0.1482 0.5507,0.1482 h 1.875 v 0.8978 h -2.2223 v -0.4799 l -0.4631,0.1072 v 0.0819 c 0,0.2729 0.0489,0.4588 0.1468,0.5576 0.0979,0.0988 0.2824,0.1482 0.5535,0.1482 h 1.7423 c 0.2692,0 0.4518,-0.0489 0.5478,-0.1468 0.096,-0.0978 0.144,-0.2841 0.144,-0.559 v -0.3359 c 0,-0.2729 -0.049,-0.4583 -0.1468,-0.5562 -0.0979,-0.0979 -0.2796,-0.1468 -0.545,-0.1468 H 47.235 v -0.8329 h 2.1122 z" />
      </g>
      <g
         id="Layer1037">
        <path
           id="path101"
           style="fill:#ffffff;fill-rule:evenodd"
           d="m 54.097,27.3931 v -0.4093 h -2.3974 v -0.9486 h 1.4514 v -0.3953 h -1.4514 v -0.83 h 2.3748 V 24.409 h -2.8746 v 2.9841 z" />
      </g>
      <g
         id="Layer1038">
        <path
           id="path104"
           style="fill:#ffffff;fill-rule:evenodd"
           d="m 55.7547,25.2899 c 0.0075,0.0112 0.0123,0.0178 0.0141,0.0197 l 1.186,1.6149 h 0.1271 l 1.1408,-1.6601 c 0.0226,-0.032 0.0485,-0.0743 0.0777,-0.127 0.0292,-0.0527 0.0626,-0.1176 0.1002,-0.1948 -0.0018,0.0527 -0.0061,0.1322 -0.0126,0.2385 -0.0067,0.1064 -0.0099,0.1727 -0.0099,0.1991 v 2.0129 h 0.4574 V 24.409 H 58.3781 L 57.0255,26.3514 55.574,24.409 h -0.4066 v 2.9841 h 0.4235 v -2.0129 c 0,-0.1054 -0.0019,-0.1901 -0.0056,-0.2541 -0.0038,-0.064 -0.0095,-0.1252 -0.017,-0.1835 0.0377,0.1129 0.0998,0.2287 0.1864,0.3473 z" />
      </g>
      <g
         id="Layer1039">
        <path
           id="path107"
           style="fill:#ffffff;fill-rule:evenodd"
           d="m 63.1702,27.3931 v -0.4093 h -2.3974 v -0.9486 h 1.4514 v -0.3953 h -1.4514 v -0.83 h 2.3748 V 24.409 H 60.273 v 2.9841 z" />
      </g>
      <g
         id="Layer1040">
        <path
           id="path110"
           style="fill:#ffffff;fill-rule:evenodd"
           d="m 65.5424,24.7506 0.8048,1.5274 h -1.6068 z m -1.3922,2.6425 v 0 l 0.3812,-0.734 h 2.0191 l 0.3812,0.734 h 0.5478 L 65.8219,24.409 h -0.5337 l -1.6293,2.9841 z" />
      </g>
      <g
         id="Layer1041">
        <path
           id="path113"
           style="fill:#ffffff;fill-rule:evenodd"
           d="m 68.787,27.3931 v -1.7588 c 0,-0.1393 -0.0028,-0.2602 -0.0085,-0.3628 -0.0056,-0.1026 -0.0141,-0.199 -0.0254,-0.2894 0.0546,0.0923 0.1384,0.1892 0.2514,0.2908 0.0225,0.0207 0.0395,0.0358 0.0508,0.0452 l 2.293,2.075 h 0.2795 V 24.409 h -0.4575 v 1.6375 c 0,0.1844 0.0038,0.3289 0.0114,0.4333 0.0075,0.1045 0.0187,0.2047 0.0338,0.3007 -0.0602,-0.0772 -0.119,-0.1477 -0.1764,-0.2117 -0.0575,-0.064 -0.1116,-0.1186 -0.1624,-0.1638 L 68.643,24.409 h -0.3134 v 2.9841 z" />
      </g>
      <g
         id="Layer1042">
        <path
           id="path116"
           style="fill:#ffffff;fill-rule:evenodd"
           d="m 75.6519,25.0654 c 0.2033,0.1666 0.305,0.439 0.305,0.8173 0,0.3915 -0.0998,0.672 -0.2993,0.8413 -0.1996,0.1694 -0.5413,0.2541 -1.0251,0.2541 h -1.0731 v -2.1626 h 1.0731 c 0.4763,0 0.8161,0.0833 1.0194,0.2499 z M 73.0596,24.409 v 0 2.9841 h 1.6435 c 0.2767,0 0.5064,-0.0187 0.689,-0.0564 0.1826,-0.0376 0.3351,-0.096 0.4575,-0.1751 0.1958,-0.1279 0.3477,-0.3035 0.456,-0.5265 0.1083,-0.223 0.1624,-0.4738 0.1624,-0.7524 0,-0.2616 -0.0551,-0.5025 -0.1652,-0.7227 -0.1101,-0.2203 -0.2612,-0.3934 -0.4532,-0.5195 -0.1262,-0.0809 -0.2801,-0.1397 -0.4617,-0.1765 -0.1817,-0.0367 -0.41,-0.055 -0.6848,-0.055 z" />
      </g>
      <g
         id="Layer1043">
        <path
           id="path119"
           style="fill:#ffffff;fill-rule:evenodd"
           d="m 78.0749,24.8155 h 2.4708 v 2.1626 h -2.4708 z m -0.497,1.8718 v 0 c 0,0.2711 0.0484,0.4565 0.1454,0.5562 0.0969,0.0998 0.2819,0.1496 0.5549,0.1496 h 2.0642 c 0.2692,0 0.4523,-0.0489 0.5492,-0.1468 0.097,-0.0978 0.1455,-0.2841 0.1455,-0.559 v -1.5725 c 0,-0.2729 -0.0485,-0.4588 -0.1455,-0.5576 -0.0969,-0.0988 -0.28,-0.1482 -0.5492,-0.1482 h -2.0642 c -0.273,0 -0.458,0.0499 -0.5549,0.1496 -0.097,0.0998 -0.1454,0.2852 -0.1454,0.5562 z" />
      </g>
      <g
         id="Layer1044">
        <path
           id="path122"
           style="fill:#ffffff;fill-rule:evenodd"
           d="m 85.7842,24.7506 0.8047,1.5274 h -1.6067 z m -1.3922,2.6425 v 0 l 0.3812,-0.734 h 2.0191 l 0.3812,0.734 h 0.5478 L 86.0637,24.409 H 85.53 l -1.6293,2.9841 z" />
      </g>
      <g
         id="Layer1045">
        <path
           id="path125"
           style="fill:#ffffff;fill-rule:evenodd"
           d="m 89.1588,25.2899 c 0.0075,0.0112 0.0122,0.0178 0.0141,0.0197 l 1.186,1.6149 h 0.127 l 1.1409,-1.6601 c 0.0226,-0.032 0.0484,-0.0743 0.0776,-0.127 0.0292,-0.0527 0.0626,-0.1176 0.1003,-0.1948 -0.0019,0.0527 -0.0061,0.1322 -0.0127,0.2385 -0.0066,0.1064 -0.0099,0.1727 -0.0099,0.1991 v 2.0129 h 0.4575 V 24.409 H 91.7821 L 90.4295,26.3514 88.978,24.409 h -0.4066 v 2.9841 h 0.4236 v -2.0129 c 0,-0.1054 -0.0019,-0.1901 -0.0057,-0.2541 -0.0038,-0.064 -0.0094,-0.1252 -0.0169,-0.1835 0.0376,0.1129 0.0997,0.2287 0.1864,0.3473 z" />
      </g>
      <g
         id="Layer1046">
        <path
           id="path128"
           style="fill:#ffffff;fill-rule:evenodd"
           d="M 94.1768,27.3931 V 24.409 H 93.677 v 2.9841 z" />
      </g>
      <g
         id="Layer1047">
        <path
           id="path131"
           style="fill:#ffffff;fill-rule:evenodd"
           d="m 98.2235,27.3931 v -0.415 h -2.2506 l 2.2506,-2.3997 V 24.409 h -2.8154 v 0.4065 h 2.0191 l -2.2111,2.3743 v 0.2033 z" />
      </g>
      <g
         id="Layer1048">
        <path
           id="path134"
           style="fill:#ffffff;fill-rule:evenodd"
           d="m 100.734,24.7506 0.8048,1.5274 H 99.932 Z m -1.3921,2.6425 v 0 l 0.3812,-0.734 h 2.019 l 0.3812,0.734 h 0.5478 l -1.6576,-2.9841 h -0.5336 l -1.6294,2.9841 z" />
      </g>
      <g
         id="Layer1049">
        <path
           id="path137"
           style="fill:#ffffff;fill-rule:evenodd"
           d="m 106.1135,25.0654 c 0.2033,0.1666 0.305,0.439 0.305,0.8173 0,0.3915 -0.0998,0.672 -0.2993,0.8413 -0.1996,0.1694 -0.5413,0.2541 -1.0251,0.2541 h -1.073 v -2.1626 h 1.073 c 0.4763,0 0.8161,0.0833 1.0194,0.2499 z m -2.5923,-0.6564 v 0 2.9841 h 1.6435 c 0.2767,0 0.5064,-0.0187 0.689,-0.0564 0.1826,-0.0376 0.3351,-0.096 0.4575,-0.1751 0.1958,-0.1279 0.3478,-0.3035 0.4561,-0.5265 0.1082,-0.223 0.1623,-0.4738 0.1623,-0.7524 0,-0.2616 -0.0551,-0.5025 -0.1652,-0.7227 -0.1101,-0.2203 -0.2612,-0.3934 -0.4532,-0.5195 -0.1261,-0.0809 -0.2801,-0.1397 -0.4617,-0.1765 -0.1817,-0.0367 -0.4099,-0.055 -0.6848,-0.055 z" />
      </g>
      <g
         id="Layer1050">
        <path
           id="path140"
           style="fill:#ffffff;fill-rule:evenodd"
           d="m 110.9763,27.3931 v -0.4093 h -2.3974 v -0.9486 h 1.4514 v -0.3953 h -1.4514 v -0.83 h 2.3748 V 24.409 h -2.8747 v 2.9841 z" />
      </g>
      <g
         id="Layer1051">
        <path
           id="path143"
           style="fill:#ffffff;fill-rule:evenodd"
           d="m 114.5937,25.2475 0.4265,-0.1214 V 25.064 c 0,-0.2428 -0.0504,-0.4127 -0.1511,-0.5096 -0.1008,-0.0969 -0.2838,-0.1454 -0.5493,-0.1454 H 112.73 c -0.2711,0 -0.4546,0.0494 -0.5506,0.1482 -0.0961,0.0988 -0.1441,0.2847 -0.1441,0.5576 v 0.2597 c 0,0.2729 0.048,0.4588 0.1441,0.5576 0.096,0.0988 0.2795,0.1482 0.5506,0.1482 h 1.875 v 0.8978 h -2.2224 v -0.4799 l -0.463,0.1072 v 0.0819 c 0,0.2729 0.0489,0.4588 0.1468,0.5576 0.0979,0.0988 0.2824,0.1482 0.5535,0.1482 h 1.7423 c 0.2692,0 0.4518,-0.0489 0.5478,-0.1468 0.096,-0.0978 0.144,-0.2841 0.144,-0.559 v -0.3359 c 0,-0.2729 -0.049,-0.4583 -0.1468,-0.5562 -0.0979,-0.0979 -0.2796,-0.1468 -0.545,-0.1468 h -1.8807 v -0.8329 h 2.1122 z" />
      </g>
    </g>
    <g
       id="Layer1052">
      <g
         id="Layer1053">
        <path
           id="path147"
           style="fill:#d00e0e;fill-rule:evenodd"
           d="m 1.6244,2.3685 8.3683,9.9319 -5.6543,6.7717 h 15.832 c 0,0 0.9939,-0.2806 1.8093,-0.9029 1.0716,-0.8179 2.0355,-2.0315 2.0355,-2.0315 L 28.3125,10.946 H 18.361 l -2.0355,2.483 h 4.071 c 0,0 -0.4873,0.9029 -0.9047,0.9029 -0.4173,0 -5.428,0 -5.428,0 L 17.6825,10.0431 12.4806,3.9486 H 7.731 l 4.7496,5.6431 -0.4524,0.4514 -6.5589,-7.6746 z" />
      </g>
      <g
         id="Layer1054">
        <path
           id="path150"
           style="fill:#d00e0e;fill-rule:evenodd"
           d="m 36.4546,8.2373 h 5.8804 c 0,0 -0.4856,1.4194 -2.2617,2.0316 h -5.2019 z" />
      </g>
      <g
         id="Layer1055">
        <path
           id="path153"
           style="fill:#d00e0e;fill-rule:evenodd"
           d="m 29.6695,10.946 -2.714,3.1601 h 4.7495 l -4.7495,5.4174 H 17.004 c 0,0 -2.2637,0.2117 -3.8449,1.3544 -1.6944,1.2245 -2.714,3.3859 -2.714,3.3859 H 29.6695 L 40.978,10.946 Z" />
      </g>
    </g>
  </g>
</svg>
